<svg height="1000px" width="700px" xmlns="http://www.w3.org/2000/svg" viewBox="0 0 700 1000"> 
<path d="M118.846,263.417C113.216,272.653 109.972,283.5 109.972,295.099C109.972,307.871 113.906,319.732 120.627,329.534L38.353,329.534C20.107,329.534 5.294,314.721 5.294,296.475C5.294,278.23 20.107,263.417 38.353,263.417L118.846,263.417ZM661.599,263.417C679.845,263.417 694.658,278.23 694.658,296.475C694.658,314.721 679.845,329.534 661.599,329.534L221.316,329.534C228.037,319.732 231.971,307.871 231.971,295.099C231.971,283.5 228.727,272.653 223.097,263.417L661.599,263.417Z"/>
    <path d="M271.309,663.417C264.961,673.04 261.266,684.563 261.266,696.942C261.266,708.924 264.728,720.103 270.705,729.534L38.353,729.534C20.107,729.534 5.294,714.721 5.294,696.475C5.294,678.23 20.107,663.417 38.353,663.417L271.309,663.417ZM661.599,663.417C679.845,663.417 694.658,678.23 694.658,696.475C694.658,714.721 679.845,729.534 661.599,729.534L373.825,729.534C379.803,720.103 383.264,708.924 383.264,696.942C383.264,684.563 379.569,673.04 373.221,663.417L661.599,663.417Z"/>
    <path d="M320.98,606.627C370.573,606.627 410.835,646.889 410.835,696.482C410.835,746.074 370.573,786.337 320.98,786.337C271.388,786.337 231.125,746.074 231.125,696.482C231.125,646.889 271.388,606.627 320.98,606.627ZM322.265,635.943C355.932,635.943 383.264,663.276 383.264,696.942C383.264,730.609 355.932,757.941 322.265,757.941C288.599,757.941 261.266,730.609 261.266,696.942C261.266,663.276 288.599,635.943 322.265,635.943Z"/>
    <path d="M530.98,406.627C580.573,406.627 620.835,446.889 620.835,496.482C620.835,546.074 580.573,586.337 530.98,586.337C481.388,586.337 441.125,546.074 441.125,496.482C441.125,446.889 481.388,406.627 530.98,406.627ZM531.056,435.485C564.722,435.485 592.055,462.818 592.055,496.485C592.055,530.151 564.722,557.484 531.056,557.484C497.389,557.484 470.056,530.151 470.056,496.485C470.056,462.818 497.389,435.485 531.056,435.485Z"/>
    <path d="M479.801,463.417C473.636,472.946 470.056,484.301 470.056,496.485C470.056,508.661 473.631,520.008 479.789,529.534L38.353,529.534C20.107,529.534 5.294,514.721 5.294,496.475C5.294,478.23 20.107,463.417 38.353,463.417L479.801,463.417ZM661.599,463.417C679.845,463.417 694.658,478.23 694.658,496.475C694.658,514.721 679.845,529.534 661.599,529.534L582.322,529.534C588.48,520.008 592.055,508.661 592.055,496.485C592.055,484.301 588.475,472.946 582.311,463.417L661.599,463.417Z"/>
    <path d="M170.98,206.627C220.573,206.627 260.835,246.889 260.835,296.482C260.835,346.074 220.573,386.337 170.98,386.337C121.388,386.337 81.125,346.074 81.125,296.482C81.125,246.889 121.388,206.627 170.98,206.627ZM170.971,234.099C204.638,234.099 231.971,261.432 231.971,295.099C231.971,328.765 204.638,356.098 170.971,356.098C137.305,356.098 109.972,328.765 109.972,295.099C109.972,261.432 137.305,234.099 170.971,234.099Z"/>
</svg>