<svg height="1000px" width="700px" xmlns="http://www.w3.org/2000/svg" viewBox="0 0 700 1000">
    <path d="M100,650C113.333,650 113.333,750 100,750L50,750C36.667,750 25,745 15,735C5,725 0,713.333 0,700C0,686.667 4.667,675 14,665C23.333,655 35.333,650 50,650L100,650M100,450C113.333,450 113.333,550 100,550L50,550C36.667,550 25,545 15,535C5,525 0,513.333 0,500C0,486.667 4.667,475 14,465C23.333,455 35.333,450 50,450L100,450M100,250C113.333,250 113.333,350 100,350L50,350C36.667,350 25,345 15,335C5,325 0,313.333 0,300C0,286.667 4.667,275 14,265C23.333,255 35.333,250 50,250L100,250M100,350C100,350 86.667,250 100,250L650,250C664.667,250 676.667,255 686,265C695.333,275 700,286.667 700,300C700,313.333 695,325 685,335C675,345 663.333,350 650,350L100,350L100,350ZM650,450C664.667,450 676.667,455 686,465C695.333,475 700,486.667 700,500C700,513.333 695,525 685,535C675,545 663.333,550 650,550L100,550C86.667,550 86.667,450 100,450L650,450M650,650C664.667,650 676.667,655 686,665C695.333,675 700,686.667 700,700C700,713.333 695,725 685,735C675,745 663.333,750 650,750L89.875,750C76.542,750 86.667,650 100,650L650,650" style="fill-rule:nonzero;"/>
    <g transform="matrix(1.25661,0,0,1.25661,-243.725,29.3891)">
        <circle cx="351.207" cy="214.434" r="71.506"/>
    </g>
    <g transform="matrix(1.25661,0,0,1.25661,75.1895,228.467)">
        <circle cx="351.207" cy="214.434" r="71.506"/>
    </g>
    <g transform="matrix(1.25661,0,0,1.25661,-150.35,427.022)">
        <circle cx="351.207" cy="214.434" r="71.506"/>
    </g>
    <ellipse cx="363.858" cy="230.786" rx="0.27" ry="6.5"/>
</svg>